<svg width="319" height="86" viewBox="0 0 319 86" fill="none" xmlns="http://www.w3.org/2000/svg">
<path d="M2.9025 0.968019C2.60869 0.193441 1.7426 -0.196301 0.968019 0.0975037C0.193441 0.391309 -0.196301 1.2574 0.0975037 2.03198L2.9025 0.968019ZM319 65L303.705 56.8718L304.313 74.1816L319 65ZM0.0975037 2.03198C8.4086 23.9431 20.9124 44.8224 39.8665 60.2266C58.8439 75.6497 84.1857 85.5 118 85.5V82.5C84.8143 82.5 60.1561 72.8503 41.7585 57.8984C23.3376 42.9276 11.0914 22.5569 2.9025 0.968019L0.0975037 2.03198ZM118 85.5C159.22 85.5 194.962 81.5933 225.987 77.3242C257.065 73.048 283.259 68.4344 305.608 66.9707L305.412 63.9771C282.921 65.4501 256.484 70.0996 225.578 74.3522C194.62 78.6121 159.028 82.5 118 82.5V85.5Z" fill="white"/>
</svg>
